<svg xmlns="http://www.w3.org/2000/svg" version="1.1" xmlns:xlink="http://www.w3.org/1999/xlink" xmlnsSvgjs="http://svgjs.dev/svgjs" width="1000" height="545" viewBox="0 0 1000 545"><g transform="matrix(1,0,0,1,-0.6060606060606801,-0.185989246077213)"><svg viewBox="0 0 396 216" data-background-color="#ffffff" preserveAspectRatio="xMidYMid meet" height="545" width="1000" xmlns="http://www.w3.org/2000/svg" xmlns:xlink="http://www.w3.org/1999/xlink"><g id="tight-bounds" transform="matrix(1,0,0,1,0.24000000000003752,0.07433656454489324)"><svg viewBox="0 0 395.5199999999999 215.85195026636762" height="215.85195026636762" width="395.5199999999999"><g><svg viewBox="0 0 397.4976 216.93121001769947" height="215.85195026636762" width="395.5199999999999"><g><rect width="397.4976" height="4.134026238702375" x="0" y="116.18825157614802" fill="#000000" opacity="1" stroke-width="0" stroke="transparent" fill-opacity="1" class="rect-r$-0" data-fill-palette-color="primary" rx="1%" id="r$-0" data-palette-color="#000000"></rect></g><g><rect width="397.4976" height="4.134026238702375" x="0" y="125.73330692309958" fill="#000000" opacity="1" stroke-width="0" stroke="transparent" fill-opacity="1" class="rect-r$-1" data-fill-palette-color="primary" rx="1%" id="r$-1" data-palette-color="#000000"></rect></g><g transform="matrix(1,0,0,1,0.9887999999999693,140.68939137830031)"><svg viewBox="0 0 395.52000000000004 76.24181863939917" height="76.24181863939917" width="395.52000000000004"><g id="textblocktransform"><svg viewBox="0 0 395.52000000000004 76.24181863939917" height="76.24181863939917" width="395.52000000000004" id="textblock"><g><svg viewBox="0 0 395.52000000000004 45.84141639344263" height="45.84141639344263" width="395.52000000000004"><g transform="matrix(1,0,0,1,0,0)"><svg width="395.52000000000004" viewBox="1.7 -34.2 304.98 35.35" height="45.84141639344263" data-palette-color="#000000"><path d="M3.8-1.7L3.8-1.7Q1.7-3.05 1.7-5.15L1.7-5.15Q1.7-8.05 6.3-8.75L6.3-8.75Q7.1-4.1 9.7-2.3L9.7-2.3Q12-0.7 14.58-0.7 17.15-0.7 19.03-2.27 20.9-3.85 20.9-7.45L20.9-7.45Q20.9-10.15 18.98-11.73 17.05-13.3 14.1-14.5 11.15-15.7 10.1-16.18 9.05-16.65 7.43-17.6 5.8-18.55 5-19.4L5-19.4Q3-21.7 3-24.7L3-24.7Q3-29.4 6.5-31.8 10-34.2 16.25-34.2L16.25-34.2Q19.8-34.2 24.5-33.4L24.5-33.4 24.5-26 22.85-26 20.85-31.9Q18.35-32.7 15.78-32.7 13.2-32.7 11.3-31.08 9.4-29.45 9.4-26.25L9.4-26.25Q9.4-22.6 12.7-20.8L12.7-20.8Q14.35-19.95 16.6-19.1 18.85-18.25 19.85-17.82 20.85-17.4 22.5-16.48 24.15-15.55 24.95-14.65 25.75-13.75 26.4-12.28 27.05-10.8 27.05-9.05L27.05-9.05Q27.05-4.8 23.45-2.1 19.85 0.6 13.63 0.6 7.4 0.6 3.8-1.7ZM45.7-1.2L45.7 0 30.35 0 30.35-1.2 34.7-1.65 34.7-31.75 30.35-32.2 30.35-33.4 45.7-33.4 45.7-32.2 41.35-31.75 41.35-1.65 45.7-1.2ZM85.45-16.75L85.45-16.75Q85.45 0 64.65 0L64.65 0 49 0 49-1.2 53.3-1.7 53.3-31.65 49-32.25 49-33.55Q51.3-33.4 54.35-33.4L54.35-33.4 59.15-33.4 65.34-33.6Q69.9-33.6 73.32-32.85 76.75-32.1 79.59-30.3L79.59-30.3Q85.45-26.6 85.45-16.75ZM77.9-16.7L77.9-16.7Q77.9-25.35 74.65-28.7L74.65-28.7Q73.59-29.85 72.7-30.43 71.8-31 70.45-31.3L70.45-31.3Q68.59-31.75 66.09-31.85L66.09-31.85 65.34-31.85Q61.7-31.85 60-31.6L60-31.6 60-1.75 64.65-1.6Q69.4-1.8 71.7-2.9L71.7-2.9Q77.9-5.85 77.9-16.7ZM125.39-16.75L125.39-16.75Q125.39 0 104.59 0L104.59 0 88.94 0 88.94-1.2 93.24-1.7 93.24-31.65 88.94-32.25 88.94-33.55Q91.24-33.4 94.29-33.4L94.29-33.4 99.09-33.4 105.29-33.6Q109.84-33.6 113.27-32.85 116.69-32.1 119.54-30.3L119.54-30.3Q125.39-26.6 125.39-16.75ZM117.84-16.7L117.84-16.7Q117.84-25.35 114.59-28.7L114.59-28.7Q113.54-29.85 112.64-30.43 111.74-31 110.39-31.3L110.39-31.3Q108.54-31.75 106.04-31.85L106.04-31.85 105.29-31.85Q101.64-31.85 99.94-31.6L99.94-31.6 99.94-1.75 104.59-1.6Q109.34-1.8 111.64-2.9L111.64-2.9Q117.84-5.85 117.84-16.7ZM166.64-1.2L166.64 0 151.34 0 151.34-1.2 155.69-1.65 155.69-16.5 139.89-16.5 139.89-1.65 144.24-1.2 144.24 0 128.89 0 128.89-1.2 133.24-1.65 133.24-31.75 128.89-32.2 128.89-33.4 144.24-33.4 144.24-32.2 139.89-31.75 139.89-18.3 155.69-18.3 155.69-31.75 151.34-32.2 151.34-33.4 166.64-33.4 166.64-32.2 162.29-31.75 162.29-1.65 166.64-1.2ZM204.09-1.2L204.09 0 189.39 0 189.39-1.2 193.44-1.65 188.84-13.15 177.59-13.15 173.59-2.5 178.04-1.2 178.04 0 167.59 0 167.59-1.2 171.39-2.5 183.49-33.4 186.99-33.4 200.24-1.65 204.09-1.2ZM178.29-15L188.09-15 183.19-27.15 178.29-15ZM215.04-31.95L215.04-17.45 216.74-17.45Q224.74-17.45 224.74-25.1L224.74-25.1Q224.74-28.8 223.19-30.48 221.64-32.15 218.29-32.15L218.29-32.15Q216.14-32.15 215.04-31.95L215.04-31.95ZM211.69-33.5L214.19-33.5 219.79-33.65Q231.69-33.65 231.69-25.1L231.69-25.1Q231.69-21.3 228.99-18.9 226.29-16.5 222.04-16.5L222.04-16.5 220.89-16.5Q226.59-15.75 228.71-13.05 230.84-10.35 230.84-4.85L230.84-4.85Q230.84-1.45 232.24-0.7L232.24-0.7Q232.74-0.4 233.71-0.4 234.69-0.4 236.39-1.2L236.39-1.2 236.44 0Q233.74 1.15 230.94 1.15L230.94 1.15Q225.34 1.15 224.19-3.05L224.19-3.05Q223.79-4.8 223.79-7.43 223.79-10.05 223.46-11.48 223.14-12.9 222.49-13.8L222.49-13.8Q221.04-16 217.04-16L217.04-16 215.04-16 215.04-1.65 218.84-1.2 218.84 0 204.74 0 204.74-1.2 208.44-1.6 208.44-31.85 204.14-32.45 204.14-33.7Q208.34-33.5 211.69-33.5L211.69-33.5ZM266.53-33.4L266.53-25.85 265.03-25.85 262.68-31.6 254.63-31.7 254.63-1.65 259.28-1.2 259.28 0 243.33 0 243.33-1.2 247.98-1.65 247.98-31.7 239.93-31.6 237.58-25.85 236.13-25.85 236.13-33.4 251.33-33.5 266.53-33.4ZM306.68-1.2L306.68 0 291.38 0 291.38-1.2 295.73-1.65 295.73-16.5 279.93-16.5 279.93-1.65 284.28-1.2 284.28 0 268.93 0 268.93-1.2 273.28-1.65 273.28-31.75 268.93-32.2 268.93-33.4 284.28-33.4 284.28-32.2 279.93-31.75 279.93-18.3 295.73-18.3 295.73-31.75 291.38-32.2 291.38-33.4 306.68-33.4 306.68-32.2 302.33-31.75 302.33-1.65 306.68-1.2Z" opacity="1" transform="matrix(1,0,0,1,0,0)" fill="#000000" class="wordmark-text-0" data-fill-palette-color="primary" id="text-0"></path></svg></g></svg></g><g transform="matrix(1,0,0,1,0,56.66347460994099)"><svg viewBox="0 0 395.52000000000004 19.57834402945818" height="19.57834402945818" width="395.52000000000004"><g transform="matrix(1,0,0,1,0,0)"><svg width="395.52000000000004" viewBox="1.15 -35.5 952.34 47.050000000000004" height="19.57834402945818" data-palette-color="#61777f"><path d="M25.95 0L1.15 0 1.15-1.05 2.15-1.4Q3.05-1.65 3.4-2.27 3.75-2.9 3.8-4L3.8-4 3.8-29.15Q3.75-30.2 3.45-30.78 3.15-31.35 2.2-31.65L2.2-31.65 1.15-32 1.15-33.05 24.95-33.05 25.3-25.05 23.9-25.05 21.9-29.55Q21.5-30.5 21-31.03 20.5-31.55 19.5-31.55L19.5-31.55 11-31.55Q10.95-28.45 10.95-25.18 10.95-21.9 10.95-17.8L10.95-17.8 15.9-17.8Q16.9-17.8 17.43-18.32 17.95-18.85 18.4-19.75L18.4-19.75 19.25-21.65 20.35-21.65 20.35-12.4 19.25-12.4 18.35-14.3Q17.95-15.2 17.45-15.75 16.95-16.3 15.95-16.3L15.95-16.3 10.95-16.3Q10.95-12.7 10.95-10.1 10.95-7.5 10.98-5.48 11-3.45 11-1.5L11-1.5 20.6-1.5Q21.6-1.5 22.15-2.02 22.7-2.55 23.05-3.5L23.05-3.5 24.9-8 26.3-8 25.95 0ZM40.2 0L28.75 0 28.75-0.95 29.55-1.15Q31.2-1.65 31.2-3.6L31.2-3.6 31.2-18.35Q31.15-19.4 30.85-19.98 30.55-20.55 29.55-20.75L29.55-20.75 28.75-20.95 28.75-21.85 36.85-24.75 37.45-24.2 37.8-21.1Q39.6-22.7 41.82-23.73 44.05-24.75 46.2-24.75L46.2-24.75Q49.5-24.75 51.27-22.95 53.05-21.15 53.05-17.45L53.05-17.45 53.05-3.55Q53.05-1.6 54.85-1.1L54.85-1.1 55.4-0.95 55.4 0 43.9 0 43.9-0.95 44.65-1.15Q46.3-1.7 46.3-3.6L46.3-3.6 46.3-18.45Q46.3-20.2 45.55-21 44.8-21.8 43.05-21.8L43.05-21.8Q40.6-21.8 37.95-19.65L37.95-19.65 37.95-3.55Q37.95-1.6 39.7-1.1L39.7-1.1 40.2-0.95 40.2 0ZM68.25-8.55L68.25-8.55Q64.95-8.55 62.6-9.65L62.6-9.65 62.6-7.85Q62.6-6.35 64.1-6.05L64.1-6.05 73-4.4Q75.55-3.9 77.5-3.18 79.45-2.45 80.55-1.13 81.65 0.2 81.65 2.45L81.65 2.45Q81.65 4.85 80.07 6.93 78.5 9 75.42 10.28 72.35 11.55 67.75 11.55L67.75 11.55Q63.8 11.55 61.47 10.73 59.15 9.9 58.15 8.6 57.15 7.3 57.15 5.8L57.15 5.8Q57.15 4 58.37 2.2 59.6 0.4 61.55-0.8L61.55-0.8Q58.5-1.95 58.5-4.45L58.5-4.45Q58.5-5.4 58.95-6.2 59.4-7 60.05-7.8L60.05-7.8 61.85-10.05Q58.25-12.15 58.25-16.6L58.25-16.6Q58.25-20.25 60.82-22.5 63.4-24.75 68.25-24.75L68.25-24.75Q73.1-24.75 75.75-22.5L75.75-22.5Q77.35-22.75 78.75-23.3 80.15-23.85 81.35-24.8L81.35-24.8 82.05-24.3 82.05-21.5 76.65-21.5Q78.25-19.5 78.25-16.6L78.25-16.6Q78.25-13.05 75.67-10.8 73.1-8.55 68.25-8.55ZM68.15-9.9L68.15-9.9Q70.25-9.9 71.22-11.53 72.2-13.15 72.2-16.75L72.2-16.75Q72.2-20.3 71.25-21.85 70.3-23.4 68.3-23.4L68.3-23.4Q66.3-23.4 65.32-21.83 64.35-20.25 64.35-16.65L64.35-16.65Q64.35-13.05 65.25-11.48 66.15-9.9 68.15-9.9ZM61.05 4.35L61.05 4.35Q61.05 7.1 62.8 8.47 64.55 9.85 68.35 9.85L68.35 9.85Q72.55 9.85 74.57 8.47 76.6 7.1 76.6 4.85L76.6 4.85Q76.6 3.45 75.57 2.65 74.55 1.85 72.15 1.4L72.15 1.4 63.2-0.35Q63-0.4 62.8-0.45L62.8-0.45Q62.05 0.55 61.55 1.85 61.05 3.15 61.05 4.35ZM89.59-27.5L89.59-27.5Q87.94-27.5 86.79-28.55 85.64-29.6 85.64-31.2L85.64-31.2Q85.64-32.85 86.79-33.88 87.94-34.9 89.59-34.9L89.59-34.9Q91.24-34.9 92.39-33.88 93.54-32.85 93.54-31.2L93.54-31.2Q93.54-29.6 92.39-28.55 91.24-27.5 89.59-27.5ZM95.29 0L83.84 0 83.84-0.95 84.59-1.15Q85.59-1.45 85.94-2.05 86.29-2.65 86.34-3.65L86.34-3.65 86.34-12.85Q86.34-14.4 86.34-15.73 86.34-17.05 86.29-18.45L86.29-18.45Q86.29-19.45 85.92-20.03 85.54-20.6 84.54-20.8L84.54-20.8 83.84-20.95 83.84-21.85 92.59-24.75 93.19-24.2 93.04-17.1 93.04-3.6Q93.04-2.6 93.42-2 93.79-1.4 94.74-1.1L94.74-1.1 95.29-0.95 95.29 0ZM108.94 0L97.49 0 97.49-0.95 98.29-1.15Q99.94-1.65 99.94-3.6L99.94-3.6 99.94-18.35Q99.89-19.4 99.59-19.98 99.29-20.55 98.29-20.75L98.29-20.75 97.49-20.95 97.49-21.85 105.59-24.75 106.19-24.2 106.54-21.1Q108.34-22.7 110.57-23.73 112.79-24.75 114.94-24.75L114.94-24.75Q118.24-24.75 120.02-22.95 121.79-21.15 121.79-17.45L121.79-17.45 121.79-3.55Q121.79-1.6 123.59-1.1L123.59-1.1 124.14-0.95 124.14 0 112.64 0 112.64-0.95 113.39-1.15Q115.04-1.7 115.04-3.6L115.04-3.6 115.04-18.45Q115.04-20.2 114.29-21 113.54-21.8 111.79-21.8L111.79-21.8Q109.34-21.8 106.69-19.65L106.69-19.65 106.69-3.55Q106.69-1.6 108.44-1.1L108.44-1.1 108.94-0.95 108.94 0ZM138.69-24.75L138.69-24.75Q141.84-24.75 144.09-23.45 146.34-22.15 147.56-19.88 148.79-17.6 148.79-14.65L148.79-14.65Q148.79-14 148.74-13.43 148.69-12.85 148.54-12.35L148.54-12.35 133.49-12.35Q133.54-7.2 135.41-4.95 137.29-2.7 140.89-2.7L140.89-2.7Q143.39-2.7 144.94-3.53 146.49-4.35 147.79-5.85L147.79-5.85 148.59-5.1Q147.09-2.35 144.51-0.83 141.94 0.7 138.39 0.7L138.39 0.7Q134.84 0.7 132.14-0.8 129.44-2.3 127.91-5.13 126.39-7.95 126.39-11.9L126.39-11.9Q126.39-16 128.16-18.85 129.94-21.7 132.76-23.23 135.59-24.75 138.69-24.75ZM138.44-23.3L138.44-23.3Q136.99-23.3 135.91-22.48 134.84-21.65 134.21-19.58 133.59-17.5 133.49-13.75L133.49-13.75 142.44-13.75Q142.99-18.8 142.04-21.05 141.09-23.3 138.44-23.3ZM163.84-24.75L163.84-24.75Q166.99-24.75 169.24-23.45 171.49-22.15 172.71-19.88 173.94-17.6 173.94-14.65L173.94-14.65Q173.94-14 173.89-13.43 173.84-12.85 173.69-12.35L173.69-12.35 158.64-12.35Q158.69-7.2 160.56-4.95 162.44-2.7 166.04-2.7L166.04-2.7Q168.54-2.7 170.09-3.53 171.64-4.35 172.94-5.85L172.94-5.85 173.74-5.1Q172.24-2.35 169.66-0.83 167.09 0.7 163.54 0.7L163.54 0.7Q159.99 0.7 157.29-0.8 154.59-2.3 153.06-5.13 151.54-7.95 151.54-11.9L151.54-11.9Q151.54-16 153.31-18.85 155.09-21.7 157.91-23.23 160.74-24.75 163.84-24.75ZM163.59-23.3L163.59-23.3Q162.14-23.3 161.06-22.48 159.99-21.65 159.36-19.58 158.74-17.5 158.64-13.75L158.64-13.75 167.59-13.75Q168.14-18.8 167.19-21.05 166.24-23.3 163.59-23.3ZM188.98 0L176.48 0 176.48-0.95 177.23-1.2Q178.23-1.45 178.61-2.05 178.98-2.65 178.98-3.65L178.98-3.65 178.98-18.3Q178.93-19.4 178.58-19.98 178.23-20.55 177.23-20.75L177.23-20.75 176.48-20.95 176.48-21.85 184.63-24.75 185.23-24.2 185.68-19.8 185.68-19.45Q186.43-20.85 187.58-22.05 188.73-23.25 190.08-24 191.43-24.75 192.78-24.75L192.78-24.75Q194.68-24.75 195.63-23.75 196.58-22.75 196.58-21.2L196.58-21.2Q196.58-19.5 195.63-18.63 194.68-17.75 193.33-17.75L193.33-17.75Q191.33-17.75 189.88-19.55L189.88-19.55 189.78-19.65Q189.28-20.25 188.66-20.33 188.03-20.4 187.43-19.7L187.43-19.7Q186.93-19.2 186.51-18.53 186.08-17.85 185.73-16.95L185.73-16.95 185.73-3.85Q185.73-2.9 186.13-2.27 186.53-1.65 187.48-1.4L187.48-1.4 188.98-0.95 188.98 0ZM204.03-27.5L204.03-27.5Q202.38-27.5 201.23-28.55 200.08-29.6 200.08-31.2L200.08-31.2Q200.08-32.85 201.23-33.88 202.38-34.9 204.03-34.9L204.03-34.9Q205.68-34.9 206.83-33.88 207.98-32.85 207.98-31.2L207.98-31.2Q207.98-29.6 206.83-28.55 205.68-27.5 204.03-27.5ZM209.73 0L198.28 0 198.28-0.95 199.03-1.15Q200.03-1.45 200.38-2.05 200.73-2.65 200.78-3.65L200.78-3.65 200.78-12.85Q200.78-14.4 200.78-15.73 200.78-17.05 200.73-18.45L200.73-18.45Q200.73-19.45 200.36-20.03 199.98-20.6 198.98-20.8L198.98-20.8 198.28-20.95 198.28-21.85 207.03-24.75 207.63-24.2 207.48-17.1 207.48-3.6Q207.48-2.6 207.86-2 208.23-1.4 209.18-1.1L209.18-1.1 209.73-0.95 209.73 0ZM223.38 0L211.93 0 211.93-0.95 212.73-1.15Q214.38-1.65 214.38-3.6L214.38-3.6 214.38-18.35Q214.33-19.4 214.03-19.98 213.73-20.55 212.73-20.75L212.73-20.75 211.93-20.95 211.93-21.85 220.03-24.75 220.63-24.2 220.98-21.1Q222.78-22.7 225-23.73 227.23-24.75 229.38-24.75L229.38-24.75Q232.68-24.75 234.45-22.95 236.23-21.15 236.23-17.45L236.23-17.45 236.23-3.55Q236.23-1.6 238.03-1.1L238.03-1.1 238.58-0.95 238.58 0 227.08 0 227.08-0.95 227.83-1.15Q229.48-1.7 229.48-3.6L229.48-3.6 229.48-18.45Q229.48-20.2 228.73-21 227.98-21.8 226.23-21.8L226.23-21.8Q223.78-21.8 221.13-19.65L221.13-19.65 221.13-3.55Q221.13-1.6 222.88-1.1L222.88-1.1 223.38-0.95 223.38 0ZM251.43-8.55L251.43-8.55Q248.13-8.55 245.78-9.65L245.78-9.65 245.78-7.85Q245.78-6.35 247.28-6.05L247.28-6.05 256.18-4.4Q258.73-3.9 260.68-3.18 262.63-2.45 263.73-1.13 264.83 0.2 264.83 2.45L264.83 2.45Q264.83 4.85 263.25 6.93 261.68 9 258.6 10.28 255.53 11.55 250.93 11.55L250.93 11.55Q246.98 11.55 244.65 10.73 242.33 9.9 241.33 8.6 240.33 7.3 240.33 5.8L240.33 5.8Q240.33 4 241.55 2.2 242.78 0.4 244.73-0.8L244.73-0.8Q241.68-1.95 241.68-4.45L241.68-4.45Q241.68-5.4 242.13-6.2 242.58-7 243.23-7.8L243.23-7.8 245.03-10.05Q241.43-12.15 241.43-16.6L241.43-16.6Q241.43-20.25 244-22.5 246.58-24.75 251.43-24.75L251.43-24.75Q256.28-24.75 258.93-22.5L258.93-22.5Q260.53-22.75 261.93-23.3 263.33-23.85 264.53-24.8L264.53-24.8 265.23-24.3 265.23-21.5 259.83-21.5Q261.43-19.5 261.43-16.6L261.43-16.6Q261.43-13.05 258.85-10.8 256.28-8.55 251.43-8.55ZM251.33-9.9L251.33-9.9Q253.43-9.9 254.4-11.53 255.38-13.15 255.38-16.75L255.38-16.75Q255.38-20.3 254.43-21.85 253.48-23.4 251.48-23.4L251.48-23.4Q249.48-23.4 248.5-21.83 247.53-20.25 247.53-16.65L247.53-16.65Q247.53-13.05 248.43-11.48 249.33-9.9 251.33-9.9ZM244.23 4.35L244.23 4.35Q244.23 7.1 245.98 8.47 247.73 9.85 251.53 9.85L251.53 9.85Q255.73 9.85 257.75 8.47 259.78 7.1 259.78 4.85L259.78 4.85Q259.78 3.45 258.75 2.65 257.73 1.85 255.33 1.4L255.33 1.4 246.38-0.35Q246.18-0.4 245.98-0.45L245.98-0.45Q245.23 0.55 244.73 1.85 244.23 3.15 244.23 4.35ZM290.92 0L278.02 0 278.02-0.95 278.77-1.15Q280.77-1.7 280.82-3.6L280.82-3.6Q280.82-5.35 280.85-7.08 280.87-8.8 280.87-10.5L280.87-10.5 280.87-22.45 278.02-22.45 278.02-23.55 279.12-23.75Q280.12-23.9 280.57-24.48 281.02-25.05 281.22-26.1L281.22-26.1Q281.77-28.1 282.7-29.58 283.62-31.05 284.92-32.3L284.92-32.3Q286.77-34.1 288.87-34.8 290.97-35.5 292.97-35.5L292.97-35.5Q294.92-35.5 296.55-34.73 298.17-33.95 298.17-32.1L298.17-32.1Q298.17-30.8 297.4-30.03 296.62-29.25 295.17-29.25L295.17-29.25Q292.87-29.25 291.12-31.95L291.12-31.95 290.52-32.65Q289.92-33.4 289.32-33.25 288.72-33.1 288.47-32.25L288.47-32.25Q288.07-30.65 287.85-28.5 287.62-26.35 287.57-24L287.57-24 293.32-24 293.32-22.45 287.57-22.45 287.57-10.5Q287.57-8.8 287.6-7.13 287.62-5.45 287.62-3.75L287.62-3.75Q287.62-1.75 289.62-1.3L289.62-1.3 290.92-0.95 290.92 0ZM300.82-27.5L300.82-27.5Q299.17-27.5 298.02-28.55 296.87-29.6 296.87-31.2L296.87-31.2Q296.87-32.85 298.02-33.88 299.17-34.9 300.82-34.9L300.82-34.9Q302.47-34.9 303.62-33.88 304.77-32.85 304.77-31.2L304.77-31.2Q304.77-29.6 303.62-28.55 302.47-27.5 300.82-27.5ZM306.52 0L295.07 0 295.07-0.95 295.82-1.15Q296.82-1.45 297.17-2.05 297.52-2.65 297.57-3.65L297.57-3.65 297.57-12.85Q297.57-14.4 297.57-15.73 297.57-17.05 297.52-18.45L297.52-18.45Q297.52-19.45 297.14-20.03 296.77-20.6 295.77-20.8L295.77-20.8 295.07-20.95 295.07-21.85 303.82-24.75 304.42-24.2 304.27-17.1 304.27-3.6Q304.27-2.6 304.64-2 305.02-1.4 305.97-1.1L305.97-1.1 306.52-0.95 306.52 0ZM320.17 0L308.72 0 308.72-0.95 309.52-1.15Q311.17-1.65 311.17-3.6L311.17-3.6 311.17-18.35Q311.12-19.4 310.82-19.98 310.52-20.55 309.52-20.75L309.52-20.75 308.72-20.95 308.72-21.85 316.82-24.75 317.42-24.2 317.77-21.1Q319.57-22.7 321.79-23.73 324.02-24.75 326.17-24.75L326.17-24.75Q329.47-24.75 331.24-22.95 333.02-21.15 333.02-17.45L333.02-17.45 333.02-3.55Q333.02-1.6 334.82-1.1L334.82-1.1 335.37-0.95 335.37 0 323.87 0 323.87-0.95 324.62-1.15Q326.27-1.7 326.27-3.6L326.27-3.6 326.27-18.45Q326.27-20.2 325.52-21 324.77-21.8 323.02-21.8L323.02-21.8Q320.57-21.8 317.92-19.65L317.92-19.65 317.92-3.55Q317.92-1.6 319.67-1.1L319.67-1.1 320.17-0.95 320.17 0ZM349.91-24.75L349.91-24.75Q353.06-24.75 355.31-23.45 357.56-22.15 358.79-19.88 360.01-17.6 360.01-14.65L360.01-14.65Q360.01-14 359.96-13.43 359.91-12.85 359.76-12.35L359.76-12.35 344.71-12.35Q344.76-7.2 346.64-4.95 348.51-2.7 352.11-2.7L352.11-2.7Q354.61-2.7 356.16-3.53 357.71-4.35 359.01-5.85L359.01-5.85 359.81-5.1Q358.31-2.35 355.74-0.83 353.16 0.7 349.61 0.7L349.61 0.7Q346.06 0.7 343.36-0.8 340.66-2.3 339.14-5.13 337.61-7.95 337.61-11.9L337.61-11.9Q337.61-16 339.39-18.85 341.16-21.7 343.99-23.23 346.81-24.75 349.91-24.75ZM349.66-23.3L349.66-23.3Q348.21-23.3 347.14-22.48 346.06-21.65 345.44-19.58 344.81-17.5 344.71-13.75L344.71-13.75 353.66-13.75Q354.21-18.8 353.26-21.05 352.31-23.3 349.66-23.3ZM371.21 0.7L371.21 0.7Q368.81 0.7 366.89 0.18 364.96-0.35 363.21-1.3L363.21-1.3 363.21-7.2 364.56-7.2 366.06-4.35Q367.01-2.5 368.24-1.6 369.46-0.7 371.36-0.7L371.36-0.7Q373.71-0.7 375.11-1.73 376.51-2.75 376.51-4.5L376.51-4.5Q376.51-6.1 375.46-7.1 374.41-8.1 371.71-8.95L371.71-8.95 369.51-9.65Q366.56-10.55 364.84-12.38 363.11-14.2 363.11-16.95L363.11-16.95Q363.11-19.1 364.26-20.88 365.41-22.65 367.61-23.7 369.81-24.75 372.96-24.75L372.96-24.75Q375.01-24.75 376.74-24.28 378.46-23.8 380.11-22.95L380.11-22.95 379.81-17.6 378.51-17.6 376.96-20.45Q376.16-22.05 375.34-22.68 374.51-23.3 372.81-23.3L372.81-23.3Q371.01-23.3 369.64-22.38 368.26-21.45 368.26-19.8L368.26-19.8Q368.26-18.25 369.41-17.28 370.56-16.3 373.11-15.45L373.11-15.45 375.26-14.8Q378.91-13.65 380.46-11.75 382.01-9.85 382.01-7.2L382.01-7.2Q382.01-3.65 379.19-1.48 376.36 0.7 371.21 0.7ZM392.96 0.7L392.96 0.7Q390.56 0.7 388.63 0.18 386.71-0.35 384.96-1.3L384.96-1.3 384.96-7.2 386.31-7.2 387.81-4.35Q388.76-2.5 389.98-1.6 391.21-0.7 393.11-0.7L393.11-0.7Q395.46-0.7 396.86-1.73 398.26-2.75 398.26-4.5L398.26-4.5Q398.26-6.1 397.21-7.1 396.16-8.1 393.46-8.95L393.46-8.95 391.26-9.65Q388.31-10.55 386.58-12.38 384.86-14.2 384.86-16.95L384.86-16.95Q384.86-19.1 386.01-20.88 387.16-22.65 389.36-23.7 391.56-24.75 394.71-24.75L394.71-24.75Q396.76-24.75 398.48-24.28 400.21-23.8 401.86-22.95L401.86-22.95 401.56-17.6 400.26-17.6 398.71-20.45Q397.91-22.05 397.08-22.68 396.26-23.3 394.56-23.3L394.56-23.3Q392.76-23.3 391.38-22.38 390.01-21.45 390.01-19.8L390.01-19.8Q390.01-18.25 391.16-17.28 392.31-16.3 394.86-15.45L394.86-15.45 397.01-14.8Q400.66-13.65 402.21-11.75 403.76-9.85 403.76-7.2L403.76-7.2Q403.76-3.65 400.93-1.48 398.11 0.7 392.96 0.7ZM418.56-24.75L418.56-24.75Q421.71-24.75 423.96-23.45 426.21-22.15 427.43-19.88 428.66-17.6 428.66-14.65L428.66-14.65Q428.66-14 428.61-13.43 428.56-12.85 428.41-12.35L428.41-12.35 413.36-12.35Q413.41-7.2 415.28-4.95 417.16-2.7 420.76-2.7L420.76-2.7Q423.26-2.7 424.81-3.53 426.36-4.35 427.66-5.85L427.66-5.85 428.46-5.1Q426.96-2.35 424.38-0.83 421.81 0.7 418.26 0.7L418.26 0.7Q414.71 0.7 412.01-0.8 409.31-2.3 407.78-5.13 406.26-7.95 406.26-11.9L406.26-11.9Q406.26-16 408.03-18.85 409.81-21.7 412.63-23.23 415.46-24.75 418.56-24.75ZM418.31-23.3L418.31-23.3Q416.86-23.3 415.78-22.48 414.71-21.65 414.08-19.58 413.46-17.5 413.36-13.75L413.36-13.75 422.31-13.75Q422.86-18.8 421.91-21.05 420.96-23.3 418.31-23.3ZM437.65 0.7L437.65 0.7Q435.9 0.7 434.68-0.5 433.45-1.7 433.45-3.4L433.45-3.4Q433.45-5.15 434.68-6.4 435.9-7.65 437.65-7.65L437.65-7.65Q439.4-7.65 440.63-6.4 441.85-5.15 441.85-3.4L441.85-3.4Q441.85-1.7 440.63-0.5 439.4 0.7 437.65 0.7ZM482.1 0L457.3 0 457.3-1.05 458.3-1.4Q459.2-1.65 459.55-2.27 459.9-2.9 459.95-4L459.95-4 459.95-29.15Q459.9-30.2 459.6-30.78 459.3-31.35 458.35-31.65L458.35-31.65 457.3-32 457.3-33.05 481.1-33.05 481.45-25.05 480.05-25.05 478.05-29.55Q477.65-30.5 477.15-31.03 476.65-31.55 475.65-31.55L475.65-31.55 467.15-31.55Q467.1-28.45 467.1-25.18 467.1-21.9 467.1-17.8L467.1-17.8 472.05-17.8Q473.05-17.8 473.57-18.32 474.1-18.85 474.55-19.75L474.55-19.75 475.4-21.65 476.5-21.65 476.5-12.4 475.4-12.4 474.5-14.3Q474.1-15.2 473.6-15.75 473.1-16.3 472.1-16.3L472.1-16.3 467.1-16.3Q467.1-12.7 467.1-10.1 467.1-7.5 467.12-5.48 467.15-3.45 467.15-1.5L467.15-1.5 476.75-1.5Q477.75-1.5 478.3-2.02 478.85-2.55 479.2-3.5L479.2-3.5 481.05-8 482.45-8 482.1 0ZM496.35 0L484.9 0 484.9-0.95 485.7-1.15Q487.35-1.65 487.35-3.6L487.35-3.6 487.35-18.35Q487.3-19.4 487-19.98 486.7-20.55 485.7-20.75L485.7-20.75 484.9-20.95 484.9-21.85 493-24.75 493.6-24.2 493.95-21.1Q495.75-22.7 497.97-23.73 500.2-24.75 502.35-24.75L502.35-24.75Q505.65-24.75 507.42-22.95 509.2-21.15 509.2-17.45L509.2-17.45 509.2-3.55Q509.2-1.6 511-1.1L511-1.1 511.55-0.95 511.55 0 500.05 0 500.05-0.95 500.8-1.15Q502.45-1.7 502.45-3.6L502.45-3.6 502.45-18.45Q502.45-20.2 501.7-21 500.95-21.8 499.2-21.8L499.2-21.8Q496.75-21.8 494.1-19.65L494.1-19.65 494.1-3.55Q494.1-1.6 495.85-1.1L495.85-1.1 496.35-0.95 496.35 0ZM522.99 0.7L522.99 0.7Q519.89 0.7 518.12-0.83 516.34-2.35 516.34-5.8L516.34-5.8Q516.34-7 516.37-8.08 516.39-9.15 516.39-10.6L516.39-10.6 516.39-22.45 512.84-22.45 512.84-23.55 514.19-23.75Q515.64-24 516.67-24.65 517.69-25.3 518.54-26.45L518.54-26.45 521.79-30.95 523.29-30.95 523.14-24 528.84-24 528.84-22.45 523.09-22.45 523.09-5.4Q523.09-3.6 523.87-2.7 524.64-1.8 525.79-1.8L525.79-1.8Q526.79-1.8 527.59-2.27 528.39-2.75 529.19-3.55L529.19-3.55 529.84-2.8Q528.89-1.15 527.19-0.23 525.49 0.7 522.99 0.7ZM543.99 0L531.49 0 531.49-0.95 532.24-1.2Q533.24-1.45 533.61-2.05 533.99-2.65 533.99-3.65L533.99-3.65 533.99-18.3Q533.94-19.4 533.59-19.98 533.24-20.55 532.24-20.75L532.24-20.75 531.49-20.95 531.49-21.85 539.64-24.75 540.24-24.2 540.69-19.8 540.69-19.45Q541.44-20.85 542.59-22.05 543.74-23.25 545.09-24 546.44-24.75 547.79-24.75L547.79-24.75Q549.69-24.75 550.64-23.75 551.59-22.75 551.59-21.2L551.59-21.2Q551.59-19.5 550.64-18.63 549.69-17.75 548.34-17.75L548.34-17.75Q546.34-17.75 544.89-19.55L544.89-19.55 544.79-19.65Q544.29-20.25 543.66-20.33 543.04-20.4 542.44-19.7L542.44-19.7Q541.94-19.2 541.51-18.53 541.09-17.85 540.74-16.95L540.74-16.95 540.74-3.85Q540.74-2.9 541.14-2.27 541.54-1.65 542.49-1.4L542.49-1.4 543.99-0.95 543.99 0ZM565.74-24.75L565.74-24.75Q568.89-24.75 571.14-23.45 573.39-22.15 574.61-19.88 575.84-17.6 575.84-14.65L575.84-14.65Q575.84-14 575.79-13.43 575.74-12.85 575.59-12.35L575.59-12.35 560.54-12.35Q560.59-7.2 562.46-4.95 564.34-2.7 567.94-2.7L567.94-2.7Q570.44-2.7 571.99-3.53 573.54-4.35 574.84-5.85L574.84-5.85 575.64-5.1Q574.14-2.35 571.56-0.83 568.99 0.7 565.44 0.7L565.44 0.7Q561.89 0.7 559.19-0.8 556.49-2.3 554.96-5.13 553.44-7.95 553.44-11.9L553.44-11.9Q553.44-16 555.21-18.85 556.99-21.7 559.81-23.23 562.64-24.75 565.74-24.75ZM565.49-23.3L565.49-23.3Q564.04-23.3 562.96-22.48 561.89-21.65 561.26-19.58 560.64-17.5 560.54-13.75L560.54-13.75 569.49-13.75Q570.04-18.8 569.09-21.05 568.14-23.3 565.49-23.3ZM590.18 11.55L578.38 11.55 578.38 10.6 579.03 10.4Q580.03 10.15 580.43 9.58 580.83 9 580.83 7.95L580.83 7.95Q580.83 5.9 580.86 4.08 580.88 2.25 580.88 0.55L580.88 0.55 580.88-13.2Q580.88-14.75 580.88-15.88 580.88-17 580.83-18.4L580.83-18.4Q580.83-19.45 580.48-20.03 580.13-20.6 579.13-20.8L579.13-20.8 578.38-20.95 578.38-21.85 586.43-24.75 587.03-24.25 587.48-22.4Q590.93-24.75 595.28-24.75L595.28-24.75Q599.53-24.75 602.11-21.55 604.68-18.35 604.68-12.1L604.68-12.1Q604.68-6.05 601.86-2.68 599.03 0.7 594.18 0.7L594.18 0.7Q592.23 0.7 590.51 0.35 588.78 0 587.43-0.7L587.43-0.7 587.43 0.8Q587.43 2.3 587.46 4.05 587.48 5.8 587.48 7.85L587.48 7.85Q587.48 9.85 589.23 10.35L589.23 10.35 590.18 10.6 590.18 11.55ZM591.83-1.3L591.83-1.3Q594.48-1.3 596.01-3.68 597.53-6.05 597.53-11.9L597.53-11.9Q597.53-17.7 596.08-20.03 594.63-22.35 591.98-22.35L591.98-22.35Q591.03-22.35 589.93-22.05 588.83-21.75 587.58-21.05L587.58-21.05 587.58-2.15Q589.58-1.3 591.83-1.3ZM619.48 0L606.98 0 606.98-0.95 607.73-1.2Q608.73-1.45 609.11-2.05 609.48-2.65 609.48-3.65L609.48-3.65 609.48-18.3Q609.43-19.4 609.08-19.98 608.73-20.55 607.73-20.75L607.73-20.75 606.98-20.95 606.98-21.85 615.13-24.75 615.73-24.2 616.18-19.8 616.18-19.45Q616.93-20.85 618.08-22.05 619.23-23.25 620.58-24 621.93-24.75 623.28-24.75L623.28-24.75Q625.18-24.75 626.13-23.75 627.08-22.75 627.08-21.2L627.08-21.2Q627.08-19.5 626.13-18.63 625.18-17.75 623.83-17.75L623.83-17.75Q621.83-17.75 620.38-19.55L620.38-19.55 620.28-19.65Q619.78-20.25 619.16-20.33 618.53-20.4 617.93-19.7L617.93-19.7Q617.43-19.2 617.01-18.53 616.58-17.85 616.23-16.95L616.23-16.95 616.23-3.85Q616.23-2.9 616.63-2.27 617.03-1.65 617.98-1.4L617.98-1.4 619.48-0.95 619.48 0ZM641.23-24.75L641.23-24.75Q644.38-24.75 646.63-23.45 648.88-22.15 650.1-19.88 651.33-17.6 651.33-14.65L651.33-14.65Q651.33-14 651.28-13.43 651.23-12.85 651.08-12.35L651.08-12.35 636.03-12.35Q636.08-7.2 637.95-4.95 639.83-2.7 643.43-2.7L643.43-2.7Q645.93-2.7 647.48-3.53 649.03-4.35 650.33-5.85L650.33-5.85 651.13-5.1Q649.63-2.35 647.05-0.83 644.48 0.7 640.93 0.7L640.93 0.7Q637.38 0.7 634.68-0.8 631.98-2.3 630.45-5.13 628.93-7.95 628.93-11.9L628.93-11.9Q628.93-16 630.7-18.85 632.48-21.7 635.3-23.23 638.13-24.75 641.23-24.75ZM640.98-23.3L640.98-23.3Q639.53-23.3 638.45-22.48 637.38-21.65 636.75-19.58 636.13-17.5 636.03-13.75L636.03-13.75 644.98-13.75Q645.53-18.8 644.58-21.05 643.63-23.3 640.98-23.3ZM665.33 0L653.88 0 653.88-0.95 654.68-1.15Q656.33-1.65 656.33-3.6L656.33-3.6 656.33-18.35Q656.28-19.4 655.98-19.98 655.68-20.55 654.68-20.75L654.68-20.75 653.88-20.95 653.88-21.85 661.98-24.75 662.58-24.2 662.93-21.1Q664.73-22.7 666.95-23.73 669.18-24.75 671.33-24.75L671.33-24.75Q674.63-24.75 676.4-22.95 678.18-21.15 678.18-17.45L678.18-17.45 678.18-3.55Q678.18-1.6 679.98-1.1L679.98-1.1 680.53-0.95 680.53 0 669.03 0 669.03-0.95 669.78-1.15Q671.43-1.7 671.43-3.6L671.43-3.6 671.43-18.45Q671.43-20.2 670.68-21 669.93-21.8 668.18-21.8L668.18-21.8Q665.73-21.8 663.08-19.65L663.08-19.65 663.08-3.55Q663.08-1.6 664.83-1.1L664.83-1.1 665.33-0.95 665.33 0ZM695.07-24.75L695.07-24.75Q698.22-24.75 700.47-23.45 702.72-22.15 703.95-19.88 705.17-17.6 705.17-14.65L705.17-14.65Q705.17-14 705.12-13.43 705.07-12.85 704.92-12.35L704.92-12.35 689.87-12.35Q689.92-7.2 691.8-4.95 693.67-2.7 697.27-2.7L697.27-2.7Q699.77-2.7 701.32-3.53 702.87-4.35 704.17-5.85L704.17-5.85 704.97-5.1Q703.47-2.35 700.9-0.83 698.32 0.7 694.77 0.7L694.77 0.7Q691.22 0.7 688.52-0.8 685.82-2.3 684.3-5.13 682.77-7.95 682.77-11.9L682.77-11.9Q682.77-16 684.55-18.85 686.32-21.7 689.15-23.23 691.97-24.75 695.07-24.75ZM694.82-23.3L694.82-23.3Q693.37-23.3 692.3-22.48 691.22-21.65 690.6-19.58 689.97-17.5 689.87-13.75L689.87-13.75 698.82-13.75Q699.37-18.8 698.42-21.05 697.47-23.3 694.82-23.3ZM716.67 0.7L716.67 0.7Q714.72 0.7 713.12-0.03 711.52-0.75 710.6-2.43 709.67-4.1 709.72-6.85L709.72-6.85 709.87-19.4Q709.87-20.5 709.52-21 709.17-21.5 708.27-21.7L708.27-21.7 707.67-21.9 707.67-22.8 716.22-24.45 716.77-23.9 716.52-16.85 716.52-5.5Q716.52-3.8 717.45-3.03 718.37-2.25 719.77-2.25L719.77-2.25Q721.22-2.25 722.4-2.68 723.57-3.1 724.82-3.95L724.82-3.95 724.97-19.35Q724.97-20.5 724.65-20.95 724.32-21.4 723.42-21.65L723.42-21.65 722.87-21.8 722.87-22.7 731.22-24.45 731.77-23.9 731.62-16.85 731.62-3.75Q731.62-2.7 731.9-2.08 732.17-1.45 733.12-1.15L733.12-1.15 733.77-0.95 733.77 0 725.32 0.5 724.87-2.65Q723.17-1.2 721.17-0.25 719.17 0.7 716.67 0.7ZM748.32 0L735.82 0 735.82-0.95 736.57-1.2Q737.57-1.45 737.94-2.05 738.32-2.65 738.32-3.65L738.32-3.65 738.32-18.3Q738.27-19.4 737.92-19.98 737.57-20.55 736.57-20.75L736.57-20.75 735.82-20.95 735.82-21.85 743.97-24.75 744.57-24.2 745.02-19.8 745.02-19.45Q745.77-20.85 746.92-22.05 748.07-23.25 749.42-24 750.77-24.75 752.12-24.75L752.12-24.75Q754.02-24.75 754.97-23.75 755.92-22.75 755.92-21.2L755.92-21.2Q755.92-19.5 754.97-18.63 754.02-17.75 752.67-17.75L752.67-17.75Q750.67-17.75 749.22-19.55L749.22-19.55 749.12-19.65Q748.62-20.25 747.99-20.33 747.37-20.4 746.77-19.7L746.77-19.7Q746.27-19.2 745.84-18.53 745.42-17.85 745.07-16.95L745.07-16.95 745.07-3.85Q745.07-2.9 745.47-2.27 745.87-1.65 746.82-1.4L746.82-1.4 748.32-0.95 748.32 0ZM763.37-27.5L763.37-27.5Q761.72-27.5 760.57-28.55 759.42-29.6 759.42-31.2L759.42-31.2Q759.42-32.85 760.57-33.88 761.72-34.9 763.37-34.9L763.37-34.9Q765.02-34.9 766.17-33.88 767.32-32.85 767.32-31.2L767.32-31.2Q767.32-29.6 766.17-28.55 765.02-27.5 763.37-27.5ZM769.07 0L757.62 0 757.62-0.95 758.37-1.15Q759.37-1.45 759.72-2.05 760.07-2.65 760.12-3.65L760.12-3.65 760.12-12.85Q760.12-14.4 760.12-15.73 760.12-17.05 760.07-18.45L760.07-18.45Q760.07-19.45 759.69-20.03 759.32-20.6 758.32-20.8L758.32-20.8 757.62-20.95 757.62-21.85 766.37-24.75 766.97-24.2 766.82-17.1 766.82-3.6Q766.82-2.6 767.19-2 767.57-1.4 768.52-1.1L768.52-1.1 769.07-0.95 769.07 0ZM778.51 0.7L778.51 0.7Q775.66 0.7 773.69-0.93 771.71-2.55 771.71-5.6L771.71-5.6Q771.71-8 774.04-10.03 776.36-12.05 781.36-13L781.36-13Q782.21-13.2 783.34-13.38 784.46-13.55 785.56-13.75L785.56-13.75 785.56-17.3Q785.56-20.7 784.71-22 783.86-23.3 782.01-23.3L782.01-23.3 781.86-23.3Q780.71-23.3 780.04-22.58 779.36-21.85 779.16-20.2L779.16-20.2 779.01-19.55Q778.86-17.55 777.96-16.63 777.06-15.7 775.71-15.7L775.71-15.7Q774.46-15.7 773.64-16.48 772.81-17.25 772.81-18.5L772.81-18.5Q772.81-20.55 774.21-21.95 775.61-23.35 777.94-24.05 780.26-24.75 782.96-24.75L782.96-24.75Q787.41-24.75 789.76-22.6 792.11-20.45 792.11-15.6L792.11-15.6 792.11-4.45Q792.11-2.3 794.16-2.3L794.16-2.3 795.31-2.3 795.81-1.75Q794.91-0.6 793.81 0.03 792.71 0.65 790.81 0.65L790.81 0.65Q788.66 0.65 787.39-0.38 786.11-1.4 785.71-3.1L785.71-3.1Q784.11-1.4 782.56-0.35 781.01 0.7 778.51 0.7ZM781.41-2.5L781.41-2.5Q782.41-2.5 783.31-2.95 784.21-3.4 785.56-4.45L785.56-4.45 785.56-12.45Q784.26-12.25 782.91-11.95L782.91-11.95Q780.76-11.45 779.44-10.1 778.11-8.75 778.11-6.45L778.11-6.45Q778.11-4.45 779.04-3.48 779.96-2.5 781.41-2.5ZM808.71 0L797.06 0 797.06-0.95 797.81-1.15Q799.46-1.7 799.46-3.65L799.46-3.65Q799.46-5.35 799.49-7.08 799.51-8.8 799.51-10.5L799.51-10.5 799.51-29.5Q799.51-30.55 799.16-31.08 798.81-31.6 797.81-31.85L797.81-31.85 797.06-32.05 797.06-33 805.81-35.1 806.46-34.65 806.26-27.6 806.26-3.65Q806.31-2.65 806.69-2.02 807.06-1.4 808.01-1.15L808.01-1.15 808.71-0.95 808.71 0ZM848.41 11.55L836.56 11.55 836.56 10.6 837.56 10.35Q839.51 9.8 839.51 7.85L839.51 7.85 839.51-1.8Q838.06-0.65 836.18 0.03 834.31 0.7 832.01 0.7L832.01 0.7Q827.71 0.7 824.93-2.5 822.16-5.7 822.16-11.75L822.16-11.75Q822.16-15.9 823.56-18.8 824.96-21.7 827.41-23.23 829.86-24.75 833.06-24.75L833.06-24.75Q835.21-24.75 837.06-24.1 838.91-23.45 840.41-22.3L840.41-22.3 845.56-24.75 846.26-24.25 846.11-17.5 846.11 8Q846.11 9.95 847.86 10.45L847.86 10.45 848.41 10.6 848.41 11.55ZM835.11-1.7L835.11-1.7Q837.16-1.7 839.36-3.25L839.36-3.25 839.36-21.25Q838.36-21.8 837.36-22.1 836.36-22.4 835.21-22.4L835.21-22.4Q832.46-22.4 830.88-19.95 829.31-17.5 829.31-11.85L829.31-11.85Q829.31-6.35 830.83-4.03 832.36-1.7 835.11-1.7ZM858.9 0.7L858.9 0.7Q856.95 0.7 855.35-0.03 853.75-0.75 852.83-2.43 851.9-4.1 851.95-6.85L851.95-6.85 852.1-19.4Q852.1-20.5 851.75-21 851.4-21.5 850.5-21.7L850.5-21.7 849.9-21.9 849.9-22.8 858.45-24.45 859-23.9 858.75-16.85 858.75-5.5Q858.75-3.8 859.68-3.03 860.6-2.25 862-2.25L862-2.25Q863.45-2.25 864.63-2.68 865.8-3.1 867.05-3.95L867.05-3.95 867.2-19.35Q867.2-20.5 866.88-20.95 866.55-21.4 865.65-21.65L865.65-21.65 865.1-21.8 865.1-22.7 873.45-24.45 874-23.9 873.85-16.85 873.85-3.75Q873.85-2.7 874.13-2.08 874.4-1.45 875.35-1.15L875.35-1.15 876-0.95 876 0 867.55 0.5 867.1-2.65Q865.4-1.2 863.4-0.25 861.4 0.7 858.9 0.7ZM890.55-24.75L890.55-24.75Q893.7-24.75 895.95-23.45 898.2-22.15 899.43-19.88 900.65-17.6 900.65-14.65L900.65-14.65Q900.65-14 900.6-13.43 900.55-12.85 900.4-12.35L900.4-12.35 885.35-12.35Q885.4-7.2 887.28-4.95 889.15-2.7 892.75-2.7L892.75-2.7Q895.25-2.7 896.8-3.53 898.35-4.35 899.65-5.85L899.65-5.85 900.45-5.1Q898.95-2.35 896.38-0.83 893.8 0.7 890.25 0.7L890.25 0.7Q886.7 0.7 884-0.8 881.3-2.3 879.78-5.13 878.25-7.95 878.25-11.9L878.25-11.9Q878.25-16 880.03-18.85 881.8-21.7 884.63-23.23 887.45-24.75 890.55-24.75ZM890.3-23.3L890.3-23.3Q888.85-23.3 887.78-22.48 886.7-21.65 886.08-19.58 885.45-17.5 885.35-13.75L885.35-13.75 894.3-13.75Q894.85-18.8 893.9-21.05 892.95-23.3 890.3-23.3ZM911.85 0.7L911.85 0.7Q909.45 0.7 907.52 0.18 905.6-0.35 903.85-1.3L903.85-1.3 903.85-7.2 905.2-7.2 906.7-4.35Q907.65-2.5 908.87-1.6 910.1-0.7 912-0.7L912-0.7Q914.35-0.7 915.75-1.73 917.15-2.75 917.15-4.5L917.15-4.5Q917.15-6.1 916.1-7.1 915.05-8.1 912.35-8.95L912.35-8.95 910.15-9.65Q907.2-10.55 905.47-12.38 903.75-14.2 903.75-16.95L903.75-16.95Q903.75-19.1 904.9-20.88 906.05-22.65 908.25-23.7 910.45-24.75 913.6-24.75L913.6-24.75Q915.65-24.75 917.37-24.28 919.1-23.8 920.75-22.95L920.75-22.95 920.45-17.6 919.15-17.6 917.6-20.45Q916.8-22.05 915.97-22.68 915.15-23.3 913.45-23.3L913.45-23.3Q911.65-23.3 910.27-22.38 908.9-21.45 908.9-19.8L908.9-19.8Q908.9-18.25 910.05-17.28 911.2-16.3 913.75-15.45L913.75-15.45 915.9-14.8Q919.55-13.65 921.1-11.75 922.65-9.85 922.65-7.2L922.65-7.2Q922.65-3.65 919.82-1.48 917 0.7 911.85 0.7ZM934.35 0.7L934.35 0.7Q931.25 0.7 929.47-0.83 927.7-2.35 927.7-5.8L927.7-5.8Q927.7-7 927.72-8.08 927.75-9.15 927.75-10.6L927.75-10.6 927.75-22.45 924.2-22.45 924.2-23.55 925.55-23.75Q927-24 928.02-24.65 929.05-25.3 929.9-26.45L929.9-26.45 933.15-30.95 934.65-30.95 934.5-24 940.2-24 940.2-22.45 934.45-22.45 934.45-5.4Q934.45-3.6 935.22-2.7 936-1.8 937.15-1.8L937.15-1.8Q938.15-1.8 938.95-2.27 939.75-2.75 940.55-3.55L940.55-3.55 941.2-2.8Q940.25-1.15 938.55-0.23 936.85 0.7 934.35 0.7ZM949.29 0.7L949.29 0.7Q947.54 0.7 946.32-0.5 945.09-1.7 945.09-3.4L945.09-3.4Q945.09-5.15 946.32-6.4 947.54-7.65 949.29-7.65L949.29-7.65Q951.04-7.65 952.27-6.4 953.49-5.15 953.49-3.4L953.49-3.4Q953.49-1.7 952.27-0.5 951.04 0.7 949.29 0.7Z" opacity="1" transform="matrix(1,0,0,1,0,0)" fill="#61777f" class="slogan-text-1" data-fill-palette-color="secondary" id="text-1"></path></svg></g></svg></g></svg></g></svg></g><g transform="matrix(1,0,0,1,93.64243156493689,0)"><svg viewBox="0 0 210.2127368701262 105.36619335964966" height="105.36619335964966" width="210.2127368701262"><g><svg xmlns="http://www.w3.org/2000/svg" xmlns:xlink="http://www.w3.org/1999/xlink" xml:space="preserve" style="shape-rendering:geometricPrecision;text-rendering:geometricPrecision;image-rendering:optimizeQuality;" viewBox="0.0000020000000000575113 0.0000027841116459863258 14.727499 7.381952827609914" x="0" y="0" fill-rule="evenodd" clip-rule="evenodd" width="210.2127368701262" height="105.36619335964966" class="icon-icon-0" data-fill-palette-color="accent" id="icon-0"><g fill="#61777f" data-fill-palette-color="accent"><path class="" d="M1.757 3.091c-0.313 0.444-0.296 1.331-0.417 1.95-0.153 0.784-0.711 1.203-1.34 1.534 0.188-0.771 0.348-1.542 0.412-2.313 0.078-0.953-0.06-0.891 0.767-1.575 1.159-0.961 3.04-1.741 5.848-2.29 2.456-0.406 5.049-0.453 7.701-0.351-0.89 1.809-3.733 1.961-7.203 1.581-1.811 0.02-3.495-0.488-5.768 1.464z m8.33 2.781c-3.895 2.038-7.803-2.284-9.165 0.688 2.104-1.831 5.079 3.183 9.165-0.688z m2.489-2.547c-4.49 2.72-9.502-0.792-10.907 1.859 3.412-1.235 7.765 2.753 10.907-1.859z m0.834-1.478c-3.944 1.761-10.043-1.402-11.565 2.239 3.106-1.808 8.446 1.438 11.565-2.239z" fill="#61777f" data-fill-palette-color="accent"></path></g></svg></g></svg></g><g></g></svg></g><defs></defs></svg><rect width="395.5199999999999" height="215.85195026636762" fill="none" stroke="none" visibility="hidden"></rect></g></svg></g></svg>