<svg width="95" height="135" viewBox="0 0 95 135" fill="none" xmlns="http://www.w3.org/2000/svg">
<path d="M45.187 26.0358C51.5955 26.0358 56.7907 21.5027 56.7907 15.9108C56.7907 10.3189 51.5955 5.78577 45.187 5.78577C38.7784 5.78577 33.5833 10.3189 33.5833 15.9108C33.5833 21.5027 38.7784 26.0358 45.187 26.0358Z" fill="#FFB8B8"/>
<path d="M36.4019 21.2142C36.4019 21.2142 38.6188 35.2721 35.2082 36.85C31.7976 38.4279 55.5014 38.5714 55.5014 38.5714C55.5014 38.5714 50.2149 26.3783 52.6023 22.6487L36.4019 21.2142Z" fill="#FFB8B8"/>
<path d="M72.2624 38.2993L70.3225 45.8903L66.2206 61.9503L66.0978 62.8299L64.6822 73.012L63.7406 79.7762L63.1092 84.32C59.2703 86.0155 56.488 87.1859 56.488 87.1859C56.488 87.1859 56.2486 86.1548 55.8629 84.8355C53.1687 85.5297 48.1835 86.6812 43.9588 86.9112C45.4972 88.3848 46.2042 89.769 45.2452 90.7906C42.3511 93.8703 30.4029 87.4186 26.2239 85.0128C26.1266 85.5888 26.0897 86.1712 26.1137 86.7529L22.9157 84.6393L23.2322 79.7762L23.7659 71.548L24.4367 61.2291C24.2252 60.7873 24.048 60.3339 23.9061 59.872C22.9267 56.8789 21.7378 50.9022 20.8261 45.8903C20.0924 41.8566 19.5413 38.4481 19.4247 37.7229C19.409 37.6282 19.4011 37.5794 19.4011 37.5794L37.1045 30.8572C38.3626 33.3645 44.2375 34.1182 44.2375 34.1182C49.1046 33.83 52.9199 31.6244 52.9199 31.6244L72.2624 38.2993Z" fill="#D0CDE1"/>
<path d="M35.3009 6.71676L33.1771 5.95985C33.1771 5.95985 37.6179 1.60766 43.7964 1.98612L42.0587 0.283074C42.0587 0.283074 46.3064 -1.23072 50.168 2.74301C52.1979 4.83191 54.5466 7.28731 56.0108 10.0533H58.2853L57.336 11.914L60.6585 13.7747L57.2483 13.4405C57.4515 14.4594 57.4827 15.4997 57.3408 16.5268C57.1945 17.5543 56.6055 18.491 55.6981 19.1392V19.1392C55.6981 19.1392 53.0641 14.2858 53.0641 13.5289V15.4211C53.0641 15.4211 50.9403 13.7181 50.9403 12.5828L49.7818 13.9073L49.2026 11.8258L42.0587 13.9073L43.2171 12.2043L38.7763 12.772L40.5141 10.6905C40.5141 10.6905 35.4941 13.1504 35.3009 15.2319C35.1079 17.3134 33.6385 19.2857 33.6385 19.2857C33.6385 19.2857 29.7017 9.55513 35.3009 6.71676Z" fill="#2F2E41"/>
<path d="M84.5311 73.678C83.3619 74.7832 80.4647 76.448 76.9525 78.2502C75.646 78.9199 74.2552 79.61 72.8362 80.2961C69.4505 81.9336 65.9055 83.5561 62.9802 84.867C59.1746 86.5725 56.4163 87.75 56.4163 87.75C56.4163 87.75 56.179 86.7127 55.7966 85.3856C55.2846 83.6092 54.5135 81.3129 53.7096 80.2961C53.6815 80.2607 53.6534 80.228 53.6253 80.1954C53.3911 79.9272 53.1554 79.7707 52.9229 79.7707L64.5396 73.4915L69.5598 70.7773L65.943 63.2485L61.4068 53.8045L64.1447 46.2077L66.8967 38.5714H72.0542C72.0542 38.5714 73.7619 41.8219 75.9457 46.3547C76.272 47.0326 76.6091 47.7391 76.9525 48.4687C81.445 57.997 87.0458 71.3027 84.5311 73.678Z" fill="#D0CDE1"/>
<path d="M32.294 79.6984C31.8753 79.697 31.4572 79.7269 31.0443 79.788C27.4972 80.3241 26.4511 83.1484 26.1533 85.0404C26.058 85.6182 26.0218 86.2023 26.0453 86.7858L22.9117 84.6658L21.7699 83.8935C19.022 83.0507 16.5734 81.5537 14.4504 79.788C12.6086 78.2291 10.9565 76.5056 9.5208 74.6455C8.0908 72.8121 6.81601 70.8888 5.70674 68.8909C5.39723 68.3334 5.23085 67.7228 5.21939 67.1025C5.20792 66.4821 5.35165 65.8672 5.6404 65.3011L9.5208 57.6939L15.1925 46.5756C15.2342 46.311 15.2799 46.0522 15.3298 45.7993C16.4546 40.1262 19.4679 37.6072 19.4679 37.6072H21.7699L23.3097 45.7993L25.2229 55.977L23.8821 59.8234L20.784 68.7063L23.7448 71.5348L32.294 79.6984Z" fill="#D0CDE1"/>
<rect x="12.6548" y="70.3928" width="69.0696" height="64.6071" fill="#D3D3D3"/>
<rect x="0.222168" y="65.5714" width="93.9347" height="10.6071" fill="#B5B5B5"/>
<path d="M15.4175 65.5713C15.4175 57.8632 18.4565 41.479 30.6128 37.6071" stroke="black"/>
<ellipse cx="3.77853" cy="1.67821" rx="3.77853" ry="1.67821" transform="matrix(0.898422 -0.439133 0.708195 0.706016 29.2314 36.6428)" fill="black"/>
<path d="M76.1987 65.9971C76.1987 58.289 73.4585 41.9048 62.4974 38.0328" stroke="black"/>
<ellipse cx="3.48174" cy="1.59759" rx="3.48174" ry="1.59759" transform="matrix(-0.87914 -0.476564 -0.670791 0.741647 63.7432 37.0685)" fill="black"/>
<path d="M40.701 80.2511H41.7054L44.2675 86.6266L46.8241 80.2511H47.8339L44.6542 88.0714H43.87L40.701 80.2511ZM40.3734 80.2511H41.2596L41.4047 85.0206V88.0714H40.3734V80.2511ZM47.2699 80.2511H48.1561V88.0714H47.1249V85.0206L47.2699 80.2511ZM50.8202 83.173V88.0714H49.8265V82.2599H50.7933L50.8202 83.173ZM52.6356 82.2277L52.6302 83.1515C52.5479 83.1336 52.4691 83.1228 52.3939 83.1193C52.3223 83.1121 52.2399 83.1085 52.1468 83.1085C51.9177 83.1085 51.7154 83.1443 51.5399 83.2159C51.3645 83.2876 51.2159 83.3878 51.0941 83.5167C50.9724 83.6456 50.8757 83.7996 50.8041 83.9786C50.736 84.1541 50.6913 84.3475 50.6698 84.5587L50.3905 84.7198C50.3905 84.3689 50.4245 84.0395 50.4925 83.7316C50.5642 83.4236 50.6734 83.1515 50.8202 82.9152C50.967 82.6753 51.1532 82.4891 51.3788 82.3566C51.6079 82.2205 51.8801 82.1525 52.1952 82.1525C52.2668 82.1525 52.3492 82.1614 52.4423 82.1793C52.5354 82.1936 52.5998 82.2098 52.6356 82.2277ZM52.9042 87.545C52.9042 87.3767 52.9561 87.2353 53.0599 87.1207C53.1674 87.0026 53.3213 86.9435 53.5218 86.9435C53.7224 86.9435 53.8745 87.0026 53.9784 87.1207C54.0858 87.2353 54.1395 87.3767 54.1395 87.545C54.1395 87.7098 54.0858 87.8494 53.9784 87.964C53.8745 88.0786 53.7224 88.1359 53.5218 88.1359C53.3213 88.1359 53.1674 88.0786 53.0599 87.964C52.9561 87.8494 52.9042 87.7098 52.9042 87.545Z" fill="black"/>
<path d="M22.0437 98.9235C22.0437 98.7408 22.0151 98.5797 21.9578 98.4401C21.9041 98.2968 21.8074 98.1679 21.6678 98.0533C21.5317 97.9388 21.3419 97.8295 21.0984 97.7257C20.8585 97.6219 20.5542 97.5162 20.1853 97.4088C19.7986 97.2942 19.4495 97.1671 19.138 97.0275C18.8265 96.8842 18.5597 96.7213 18.3377 96.5387C18.1157 96.3561 17.9456 96.1466 17.8274 95.9103C17.7093 95.674 17.6502 95.4036 17.6502 95.0992C17.6502 94.7949 17.7129 94.5138 17.8382 94.256C17.9635 93.9982 18.1425 93.7744 18.3753 93.5846C18.6116 93.3912 18.8927 93.2408 19.2186 93.1334C19.5444 93.026 19.9078 92.9723 20.3089 92.9723C20.8961 92.9723 21.3938 93.0851 21.802 93.3107C22.2138 93.5327 22.5271 93.8245 22.742 94.1862C22.9568 94.5442 23.0643 94.9274 23.0643 95.3356H22.033C22.033 95.042 21.9703 94.7823 21.845 94.5568C21.7197 94.3276 21.5299 94.1486 21.2757 94.0197C21.0214 93.8872 20.6992 93.8209 20.3089 93.8209C19.9401 93.8209 19.6357 93.8764 19.3958 93.9874C19.1559 94.0984 18.9769 94.2488 18.8587 94.4386C18.7441 94.6284 18.6868 94.845 18.6868 95.0885C18.6868 95.2532 18.7208 95.4036 18.7889 95.5397C18.8605 95.6722 18.9697 95.7957 19.1165 95.9103C19.2669 96.0249 19.4567 96.1305 19.6858 96.2272C19.9186 96.3239 20.1961 96.417 20.5184 96.5065C20.9624 96.6318 21.3455 96.7714 21.6678 96.9254C21.99 97.0794 22.255 97.2531 22.4627 97.4464C22.674 97.6362 22.8297 97.8528 22.93 98.0963C23.0338 98.3362 23.0857 98.6084 23.0857 98.9127C23.0857 99.2314 23.0213 99.5197 22.8924 99.7775C22.7635 100.035 22.5791 100.255 22.3392 100.438C22.0992 100.621 21.811 100.762 21.4744 100.862C21.1414 100.959 20.769 101.007 20.3572 101.007C19.9956 101.007 19.6393 100.957 19.2884 100.857C18.941 100.757 18.6242 100.606 18.3377 100.406C18.0548 100.205 17.8274 99.9583 17.6556 99.6647C17.4873 99.3675 17.4031 99.0237 17.4031 98.6334H18.4344C18.4344 98.902 18.4863 99.1329 18.5901 99.3263C18.694 99.5161 18.8354 99.6736 19.0145 99.799C19.1971 99.9243 19.403 100.017 19.6321 100.078C19.8649 100.136 20.1066 100.164 20.3572 100.164C20.7189 100.164 21.025 100.114 21.2757 100.014C21.5263 99.9135 21.7161 99.7703 21.845 99.5841C21.9775 99.3979 22.0437 99.1777 22.0437 98.9235ZM25.5188 93.0797V100.9H24.4822V93.0797H25.5188ZM29.5203 100.9H27.8875L27.8982 100.057H29.5203C30.0789 100.057 30.5444 99.9404 30.9168 99.7076C31.2892 99.4713 31.5685 99.1419 31.7547 98.7194C31.9445 98.2933 32.0394 97.7955 32.0394 97.2262V96.7482C32.0394 96.3006 31.9856 95.9031 31.8782 95.5558C31.7708 95.2049 31.6132 94.9095 31.4056 94.6696C31.1979 94.4261 30.9436 94.2417 30.6429 94.1163C30.3457 93.991 30.0037 93.9283 29.617 93.9283H27.8553V93.0797H29.617C30.129 93.0797 30.5963 93.1656 31.0188 93.3375C31.4414 93.5058 31.8048 93.7511 32.1092 94.0734C32.4171 94.392 32.6534 94.7788 32.8182 95.2335C32.9829 95.6847 33.0652 96.1932 33.0652 96.7589V97.2262C33.0652 97.792 32.9829 98.3022 32.8182 98.757C32.6534 99.2081 32.4153 99.5931 32.1038 99.9117C31.7959 100.23 31.4235 100.476 30.9866 100.648C30.5533 100.816 30.0646 100.9 29.5203 100.9ZM28.4407 93.0797V100.9H27.4041V93.0797H28.4407ZM36.7391 100.9H35.1062L35.117 100.057H36.7391C37.2977 100.057 37.7631 99.9404 38.1355 99.7076C38.5079 99.4713 38.7872 99.1419 38.9734 98.7194C39.1632 98.2933 39.2581 97.7955 39.2581 97.2262V96.7482C39.2581 96.3006 39.2044 95.9031 39.097 95.5558C38.9895 95.2049 38.832 94.9095 38.6243 94.6696C38.4166 94.4261 38.1624 94.2417 37.8616 94.1163C37.5644 93.991 37.2225 93.9283 36.8357 93.9283H35.074V93.0797H36.8357C37.3478 93.0797 37.8151 93.1656 38.2376 93.3375C38.6601 93.5058 39.0236 93.7511 39.3279 94.0734C39.6359 94.392 39.8722 94.7788 40.0369 95.2335C40.2016 95.6847 40.284 96.1932 40.284 96.7589V97.2262C40.284 97.792 40.2016 98.3022 40.0369 98.757C39.8722 99.2081 39.6341 99.5931 39.3226 99.9117C39.0146 100.23 38.6422 100.476 38.2054 100.648C37.7721 100.816 37.2833 100.9 36.7391 100.9ZM35.6595 93.0797V100.9H34.6228V93.0797H35.6595ZM46.9495 96.442V97.2853H42.7171V96.442H46.9495ZM42.8782 93.0797V100.9H41.8416V93.0797H42.8782ZM47.8519 93.0797V100.9H46.8206V93.0797H47.8519ZM52.6858 93.7726L50.097 100.9H49.0389L52.0198 93.0797H52.702L52.6858 93.7726ZM54.8558 100.9L52.2615 93.7726L52.2454 93.0797H52.9275L55.9192 100.9H54.8558ZM54.7215 98.005V98.8536H50.3279V98.005H54.7215ZM56.9666 93.0797H59.5555C60.1427 93.0797 60.6386 93.1692 61.0433 93.3483C61.4515 93.5273 61.7612 93.7923 61.9725 94.1432C62.1873 94.4905 62.2947 94.9184 62.2947 95.4269C62.2947 95.785 62.2213 96.1126 62.0745 96.4098C61.9313 96.7034 61.7236 96.9541 61.4515 97.1617C61.1829 97.3658 60.8606 97.518 60.4847 97.6183L60.1946 97.7311H57.7615L57.7508 96.8878H59.5877C59.9601 96.8878 60.2698 96.8234 60.5169 96.6945C60.764 96.562 60.9502 96.3847 61.0755 96.1627C61.2008 95.9407 61.2635 95.6954 61.2635 95.4269C61.2635 95.1261 61.2044 94.8629 61.0862 94.6373C60.9681 94.4117 60.7819 94.2381 60.5276 94.1163C60.277 93.991 59.9529 93.9283 59.5555 93.9283H58.0032V100.9H56.9666V93.0797ZM61.5374 100.9L59.636 97.3551L60.7156 97.3497L62.6438 100.836V100.9H61.5374ZM66.2049 93.0797V100.9H65.1844V93.0797H66.2049ZM68.7186 93.0797V93.9283H62.6761V93.0797H68.7186ZM74.9866 96.442V97.2853H70.7542V96.442H74.9866ZM70.9153 93.0797V100.9H69.8787V93.0797H70.9153ZM75.889 93.0797V100.9H74.8577V93.0797H75.889Z" fill="black"/>
<path d="M39.7393 103.394H42.3281C42.9154 103.394 43.4113 103.483 43.8159 103.662C44.2241 103.842 44.5338 104.106 44.7451 104.457C44.96 104.805 45.0674 105.233 45.0674 105.741C45.0674 106.099 44.994 106.427 44.8472 106.724C44.7039 107.018 44.4962 107.268 44.2241 107.476C43.9556 107.68 43.6333 107.832 43.2573 107.932L42.9673 108.045H40.5342L40.5234 107.202H42.3603C42.7327 107.202 43.0425 107.138 43.2895 107.009C43.5366 106.876 43.7228 106.699 43.8481 106.477C43.9735 106.255 44.0361 106.01 44.0361 105.741C44.0361 105.44 43.977 105.177 43.8589 104.952C43.7407 104.726 43.5545 104.552 43.3003 104.431C43.0496 104.305 42.7256 104.243 42.3281 104.243H40.7759V111.214H39.7393V103.394ZM44.3101 111.214L42.4087 107.669L43.4883 107.664L45.4165 111.15V111.214H44.3101ZM49.4126 104.087L46.8237 111.214H45.7656L48.7466 103.394H49.4287L49.4126 104.087ZM51.5825 111.214L48.9883 104.087L48.9722 103.394H49.6543L52.646 111.214H51.5825ZM51.4482 108.319V109.168H47.0547V108.319H51.4482ZM54.8052 103.394V111.214H53.7685V103.394H54.8052Z" fill="black"/>
<line x1="24.2056" y1="116.9" x2="72.1722" y2="116.9" stroke="#717171" stroke-width="2"/>
<line x1="24.2056" y1="126.8" x2="72.1722" y2="126.8" stroke="#717171" stroke-width="2"/>
<line x1="38.1958" y1="121.4" x2="56.1833" y2="121.4" stroke="#717171" stroke-width="2"/>
</svg>
