<svg width="106" height="119" viewBox="0 0 106 119" fill="none" xmlns="http://www.w3.org/2000/svg">
<g clip-path="url(#clip0_906_22)">
<path d="M77.0261 67.1111V99.7811L81.5916 108.687L81.939 109.364H99.953L100.317 67.1111H77.0261Z" fill="#E6E6E6"/>
<path opacity="0.1" d="M77.0261 67.1111V99.7811L81.5916 108.687L81.8717 67.1111H77.0261Z" fill="black"/>
<path d="M33.5381 66.2395V98.9098L28.9727 107.816L28.6252 108.493H10.6113L10.2473 66.2395H33.5381Z" fill="#E6E6E6"/>
<path opacity="0.1" d="M33.538 66.2395V98.9096L28.9726 107.815L28.6924 66.2395H33.538Z" fill="black"/>
<path d="M105.776 65.5863V67.5464H7.88184V64.715L16.9797 59.0521H97.7695L105.776 65.5863Z" fill="#E6E6E6"/>
<path opacity="0.1" d="M105.776 65.5863V67.5464H7.88184V64.715L105.776 65.5863Z" fill="black"/>
<path d="M21.8928 75.3871H17.5256L15.7061 73.8624H23.8943L21.8928 75.3871Z" fill="#3F3D56"/>
<path d="M21.8928 81.7036H17.5256L15.7061 80.179H23.8943L21.8928 81.7036Z" fill="#3F3D56"/>
<path d="M21.8928 90.6334H17.5256L15.7061 89.1086H23.8943L21.8928 90.6334Z" fill="#3F3D56"/>
<path d="M21.8928 99.5634H17.5256L15.7061 98.0388H23.8943L21.8928 99.5634Z" fill="#3F3D56"/>
<path d="M88.6719 76.2585H93.039L94.8586 74.7339H86.6704L88.6719 76.2585Z" fill="#3F3D56"/>
<path d="M88.6719 82.5746H93.039L94.8586 81.05H86.6704L88.6719 82.5746Z" fill="#3F3D56"/>
<path d="M88.6719 91.5044H93.039L94.8586 89.9799H86.6704L88.6719 91.5044Z" fill="#3F3D56"/>
<path d="M88.6719 100.434H93.039L94.8586 98.9097H86.6704L88.6719 100.434Z" fill="#3F3D56"/>
<path d="M91.6455 21.2723H54.8811C54.6985 21.2723 54.5177 21.3153 54.349 21.399C54.1803 21.4826 54.027 21.6052 53.8979 21.7597C53.7688 21.9143 53.6664 22.0977 53.5965 22.2997C53.5266 22.5016 53.4907 22.718 53.4907 22.9366V52.5801C53.4907 52.7986 53.5266 53.0151 53.5965 53.217C53.6664 53.4189 53.7688 53.6024 53.8979 53.7569C54.027 53.9115 54.1803 54.0341 54.349 54.1177C54.5177 54.2013 54.6985 54.2444 54.8811 54.2443H68.8372L68.3143 58.2401C68.3143 58.2401 65.3263 60.1402 67.4272 60.1961C69.5282 60.2519 79.4262 60.1961 79.4262 60.1961C79.4262 60.1961 81.3404 60.1961 78.3057 58.1842L77.8138 54.2443H91.6455C91.8281 54.2444 92.0089 54.2013 92.1776 54.1177C92.3463 54.0341 92.4996 53.9115 92.6287 53.7569C92.7578 53.6024 92.8602 53.4189 92.9301 53.217C92.9999 53.0151 93.0359 52.7986 93.0359 52.5801V22.9366C93.0359 22.718 92.9999 22.5016 92.9301 22.2997C92.8602 22.0977 92.7578 21.9143 92.6287 21.7597C92.4996 21.6052 92.3463 21.4826 92.1776 21.399C92.0089 21.3153 91.8281 21.2723 91.6455 21.2723V21.2723Z" fill="#3F3D56"/>
<path d="M91.7051 23.0328H54.8213V47.7339H91.7051V23.0328Z" fill="#F2F2F2"/>
<path d="M73.2636 22.5299C73.3927 22.5299 73.4973 22.4048 73.4973 22.2505C73.4973 22.0962 73.3927 21.9711 73.2636 21.9711C73.1344 21.9711 73.0298 22.0962 73.0298 22.2505C73.0298 22.4048 73.1344 22.5299 73.2636 22.5299Z" fill="#F2F2F2"/>
<path d="M73.2633 53.043C73.7532 53.043 74.1504 52.5677 74.1504 51.9812C74.1504 51.3948 73.7532 50.9194 73.2633 50.9194C72.7734 50.9194 72.3762 51.3948 72.3762 51.9812C72.3762 52.5677 72.7734 53.043 73.2633 53.043Z" fill="#F2F2F2"/>
<path d="M71.8811 63.214V63.7729H46.7627V63.3258L46.7972 63.214L47.4163 61.2021H71.3675L71.8811 63.214Z" fill="#3F3D56"/>
<path d="M81.5474 62.6668C81.5017 62.901 81.3289 63.148 80.9386 63.3816C79.538 64.2199 76.69 63.158 76.69 63.158C76.69 63.158 74.4956 62.711 74.4956 61.5374C74.5572 61.4869 74.6215 61.4411 74.688 61.4005C75.2768 61.0276 77.2293 60.1074 80.6914 61.4394C80.9464 61.5353 81.1742 61.714 81.3494 61.9556C81.4271 62.047 81.4855 62.1591 81.5199 62.2827C81.5543 62.4063 81.5637 62.538 81.5474 62.6668Z" fill="#3F3D56"/>
<path opacity="0.1" d="M81.5472 62.6668C79.8328 63.4531 78.3047 63.5118 76.7364 62.208C76.1434 61.6832 75.4253 61.4001 74.6877 61.4005C75.2766 61.0276 77.2291 60.1074 80.6911 61.4394C80.9462 61.5353 81.174 61.714 81.3492 61.9556C81.4268 62.047 81.4853 62.1591 81.5197 62.2827C81.5541 62.4064 81.5635 62.538 81.5472 62.6668Z" fill="black"/>
<path d="M79.3977 62.2083C79.7329 62.2083 80.0047 62.1082 80.0047 61.9847C80.0047 61.8613 79.7329 61.7612 79.3977 61.7612C79.0625 61.7612 78.7908 61.8613 78.7908 61.9847C78.7908 62.1082 79.0625 62.2083 79.3977 62.2083Z" fill="#F2F2F2"/>
<path opacity="0.1" d="M71.8811 63.2139V63.7728H46.7627V63.3257L46.7972 63.2139H71.8811Z" fill="black"/>
<path d="M14.8147 -0.000181974C14.5598 -0.025235 14.3045 0.0430214 14.0827 0.195543C13.865 0.374049 13.7277 0.686774 13.5876 0.977782C13.052 2.10371 12.3268 3.08421 11.458 3.85717C10.8252 4.41204 10.0207 5.1039 10.129 6.12694C10.1861 6.46479 10.2904 6.78871 10.4375 7.08508C11.0212 8.49558 12.6142 9.58559 12.4575 11.1951C13.0374 10.0329 12.2617 9.45824 12.8417 8.29606C13.1179 7.7426 13.5977 7.11785 14.0147 7.46542C14.1543 7.5818 14.246 7.79053 14.3914 7.89264C14.7383 8.1363 15.1073 7.67048 15.4144 7.34054C16.4732 6.20278 17.979 6.50084 19.2967 6.85534C19.9187 7.0227 20.602 7.24227 20.9697 7.95391C21.4532 8.88957 20.5104 9.9001 20.2721 10.958C20.2527 11.0481 20.2518 11.1425 20.2695 11.2332C20.2871 11.3238 20.3229 11.408 20.3737 11.4785C20.4245 11.549 20.4888 11.6038 20.5611 11.638C20.6334 11.6723 20.7116 11.6851 20.789 11.6753C21.1843 11.6286 21.6527 11.5904 21.6761 11.3827C22.1735 11.4039 22.783 11.3365 22.9961 10.7165C23.0613 10.4712 23.0957 10.2157 23.0983 9.95832C23.1765 8.91688 23.5458 7.96677 23.7904 6.97557C24.0351 5.98436 24.1414 4.82274 23.7286 3.94393C23.5813 3.65153 23.399 3.38645 23.1877 3.15708C20.845 0.443322 17.7648 -0.0042102 14.8147 -0.000181974Z" fill="#2F2E41"/>
<path d="M12.9672 13.2283C12.9672 13.2283 13.4767 18.3106 11.6085 18.7172C9.74031 19.1237 13.3069 26.0356 13.3069 26.0356L21.7987 27.2553L19.7607 19.1237C19.7607 19.1237 18.402 18.5139 19.2512 14.4481C20.1003 10.3823 12.9672 13.2283 12.9672 13.2283Z" fill="#FFB8B8"/>
<path d="M7.78711 100.541L8.46652 111.722H12.0329L11.0141 100.541H7.78711Z" fill="#FFB8B8"/>
<path d="M33.9419 79.399L34.4513 88.7503L38.3577 86.7174L36.8291 78.9924L33.9419 79.399Z" fill="#FFB8B8"/>
<path d="M5.2395 57.8502C5.2395 57.8502 5.40934 69.641 6.42836 73.5036C7.44739 77.3661 7.27754 77.5694 7.10771 78.1792C6.93787 78.7891 6.76804 78.3825 6.76804 79.399C6.76804 80.4154 6.42836 96.4754 6.76804 97.8984C7.10771 99.3214 5.74902 101.761 6.76804 101.964C7.78705 102.167 12.5425 101.964 12.7123 100.744C12.8822 99.5247 11.3536 99.1181 12.033 98.305C12.7123 97.4918 13.7313 80.822 13.7313 80.822L16.109 69.2345L20.5248 63.1357H29.8658L32.753 76.5529C32.753 76.5529 31.5642 80.4154 32.4133 80.4154C33.2625 80.4154 38.3576 81.6352 38.3576 77.1628C38.3576 72.6904 36.6593 59.4765 36.3196 59.0699C35.9799 58.6634 36.4894 57.2403 35.9799 56.6305C35.4704 56.0206 29.5261 51.7515 27.3183 50.9383C25.1104 50.1252 22.0131 49.1573 22.0131 49.1573L5.2395 57.8502Z" fill="#2F2E41"/>
<path d="M38.3575 85.091C38.3575 85.091 35.81 84.0745 34.6211 87.1239C33.4323 90.1732 33.9418 90.9864 33.9418 90.9864C33.9418 90.9864 37.848 92.6127 38.5274 91.7995C38.8229 91.4457 39.7615 91.3228 40.7275 91.2969C42.1989 91.2573 42.5904 88.7656 41.2008 88.1854C41.1593 88.1681 41.1174 88.1531 41.0749 88.1403C39.7162 87.7337 38.3575 85.091 38.3575 85.091Z" fill="#2F2E41"/>
<path d="M16.7885 16.5825C19.6024 16.5825 21.8836 13.8521 21.8836 10.4838C21.8836 7.11562 19.6024 4.38513 16.7885 4.38513C13.9745 4.38513 11.6934 7.11562 11.6934 10.4838C11.6934 13.8521 13.9745 16.5825 16.7885 16.5825Z" fill="#FFB8B8"/>
<path d="M10.1646 21.2581C10.1646 21.2581 18.4865 23.291 20.5246 20.0383C22.5626 16.7857 23.4118 29.1864 23.4118 29.1864L24.4308 42.197L22.9023 49.3121C22.9023 49.3121 14.92 57.0371 12.3725 57.647C9.82492 58.2569 5.9187 58.6635 5.9187 58.6635C5.9187 58.6635 7.10756 36.0982 7.10756 35.6917C7.10756 35.2851 10.1646 21.2581 10.1646 21.2581Z" fill="#0084BA"/>
<path d="M12.6958 17.4456C12.6958 17.4456 10.8443 16.1759 10.3347 17.3957C9.82523 18.6154 5.06981 21.6648 4.5603 21.6648C4.05079 21.6648 5.57932 38.5379 4.89998 40.5708C4.22063 42.6037 0.99374 57.4439 2.86194 58.6636C4.73014 59.8834 3.37145 57.4439 5.23965 60.4932C7.10785 63.5426 16.279 63.5426 16.7885 62.3228C17.298 61.1031 12.7125 51.955 13.5616 43.4168C14.4108 34.8787 15.7695 23.0878 14.5807 21.4615C13.3918 19.8352 12.6958 17.4456 12.6958 17.4456Z" fill="#2F2E41"/>
<path d="M18.8264 18.8186L19.063 17.8441C19.063 17.8441 26.1294 20.6482 26.469 22.4778C26.8087 24.3074 26.6389 37.1147 25.45 38.1311C24.2612 39.1476 22.5628 40.7739 23.7517 43.2134C24.9405 45.6529 26.2992 48.2956 27.3182 48.4989C28.3372 48.7022 30.2054 50.1252 29.6959 51.5483C29.1864 52.9713 23.0723 50.3285 23.0723 50.3285C23.0723 50.3285 18.9963 46.6693 19.1661 40.9772C19.3359 35.2851 18.8264 18.8186 18.8264 18.8186Z" fill="#2F2E41"/>
<path d="M24.7706 42.8069L20.6945 51.9549C20.6945 51.9549 14.7503 59.2733 18.147 60.0865C21.5437 60.8997 23.4119 53.3779 23.4119 53.3779L27.8277 45.8562L24.7706 42.8069Z" fill="#FFB8B8"/>
<path d="M15.0629 1.5957C14.8575 1.57749 14.6518 1.62525 14.467 1.73404C14.2999 1.8801 14.1622 2.069 14.064 2.28692C13.611 3.10256 13.0205 3.79578 12.3304 4.32206C11.8153 4.71424 11.1604 5.20324 11.2485 5.92632C11.2964 6.16876 11.3815 6.39841 11.4996 6.60353C11.9764 7.61054 12.1663 8.77606 12.0403 9.92372L13.4567 7.45945C13.6816 7.06827 14.0721 6.62669 14.4116 6.87236C14.5253 6.95461 14.5999 7.10214 14.7182 7.17432C15.0006 7.34653 15.301 7.0173 15.551 6.78409C16.413 5.97993 17.6387 6.1906 18.7113 6.44116C19.2177 6.55944 19.7739 6.71464 20.0733 7.21762C20.5707 8.05349 20.0513 9.26125 20.3416 10.2269C20.4229 10.1588 20.4919 10.0718 20.5446 9.9712C20.5972 9.87057 20.6325 9.75831 20.6483 9.64107C21.0532 9.65605 21.5493 9.6084 21.7228 9.17019C21.7756 8.99845 21.8037 8.81727 21.806 8.63431C21.8697 7.89823 22.1703 7.2267 22.3694 6.52613C22.5686 5.82555 22.6552 5.00451 22.3191 4.38337C22.1962 4.17292 22.0478 3.98549 21.8788 3.82723C19.9717 1.90917 17.4643 1.59286 15.0629 1.5957Z" fill="#2F2E41"/>
<path d="M24.7708 21.6647L26.3532 22.1674C26.3532 22.1674 30.0357 33.4555 29.1865 41.1805C28.3374 48.9055 27.8278 47.2791 27.8278 47.2791C27.8278 47.2791 26.4692 43.6199 23.4121 44.4331L24.7708 21.6647Z" fill="#2F2E41"/>
<path d="M8.02228 110.245C7.61272 110.911 7.69484 111.863 7.33205 112.567C7.01758 113.177 6.42494 113.497 6.0316 114.038C5.90609 114.217 5.7942 114.41 5.69726 114.614C5.33238 115.345 5.0358 116.283 5.39516 117.018C5.68424 117.61 6.29187 117.841 6.84914 117.999C7.55349 118.198 8.28532 118.357 8.99781 118.205C9.71029 118.053 10.4066 117.531 10.6607 116.719C10.7106 116.515 10.7699 116.315 10.8385 116.119C11.2246 115.209 12.4359 115.199 12.8311 114.295C13.1077 113.662 12.8535 112.897 12.5993 112.25L11.8231 110.276C11.5655 109.621 10.5213 109.998 9.97693 109.841C9.26694 109.636 8.53304 109.411 8.02228 110.245Z" fill="#2F2E41"/>
<path d="M2.35229 46.8727L9.4854 60.0865C9.4854 60.0865 13.9011 66.7951 15.2598 63.7457C16.6185 60.6964 10.5044 55.6142 10.5044 55.6142L5.91884 45.4497L2.35229 46.8727Z" fill="#FFB8B8"/>
<path d="M5.91885 22.0713L4.56016 21.6647C4.56016 21.6647 1.84278 22.6811 1.16344 26.9502C0.484094 31.2193 0.993601 48.2957 1.84278 48.499C2.69196 48.7023 6.03688 45.5257 6.57229 46.1992C7.10771 46.8727 5.40934 43.4168 5.91884 41.5871C6.42835 39.7575 5.91885 22.0713 5.91885 22.0713Z" fill="#2F2E41"/>
<path d="M69.7724 31.1455H65.3828V32.4104H69.7724V31.1455Z" fill="#0084BA"/>
<path d="M84.9732 31.1455H83.4287V32.4104H84.9732V31.1455Z" fill="#0084BA"/>
<path d="M88.0623 31.1455H86.5178V32.4104H88.0623V31.1455Z" fill="#0084BA"/>
<path d="M81.8029 31.1455H71.3167V32.4104H81.8029V31.1455Z" fill="#0084BA"/>
<path d="M64.2446 39.3188H59.855V40.5837H64.2446V39.3188Z" fill="#0084BA"/>
<path d="M79.4456 39.3188H77.9011V40.5837H79.4456V39.3188Z" fill="#0084BA"/>
<path d="M82.5348 39.3188H80.9902V40.5837H82.5348V39.3188Z" fill="#0084BA"/>
<path d="M76.2753 39.3188H65.7891V40.5837H76.2753V39.3188Z" fill="#0084BA"/>
<path d="M82.372 33.9673H77.9824V35.2322H82.372V33.9673Z" fill="#0084BA"/>
<path d="M88.3061 33.9673H83.9165V35.2322H88.3061V33.9673Z" fill="#0084BA"/>
<path d="M61.3994 33.9673H59.855V35.2322H61.3994V33.9673Z" fill="#0084BA"/>
<path d="M64.4886 33.9673H62.9441V35.2322H64.4886V33.9673Z" fill="#0084BA"/>
<path d="M76.5193 33.9673H66.033V35.2322H76.5193V33.9673Z" fill="#0084BA"/>
<path d="M73.2677 36.6918H68.8782V37.9567H73.2677V36.6918Z" fill="#0084BA"/>
<path d="M67.3337 36.6918H62.9441V37.9567H67.3337V36.6918Z" fill="#0084BA"/>
<path d="M61.3994 36.6918H59.855V37.9567H61.3994V36.6918Z" fill="#0084BA"/>
<path d="M88.3062 36.6918H86.7617V37.9567H88.3062V36.6918Z" fill="#0084BA"/>
<path d="M85.217 36.6918H74.7307V37.9567H85.217V36.6918Z" fill="#0084BA"/>
</g>
<defs>
<clipPath id="clip0_906_22">
<rect width="104.927" height="118.265" fill="white" transform="translate(0.848633)"/>
</clipPath>
</defs>
</svg>
